<svg id="Layer_5" enable-background="new 0 0 64 64" height="512" viewBox="0 0 64 64" width="512" xmlns="http://www.w3.org/2000/svg"><g><g><g><path d="m24 8h-3-8-3l6-6h2z" fill="#ff826e"/></g><g><path d="m13 8h8v6h-8z" fill="#e6e9ed"/></g><g><path d="m58 8v1h-12v-1c0-3.31 2.69-6 6-6 1.66 0 3.16.67 4.24 1.76 1.09 1.08 1.76 2.58 1.76 4.24z" fill="#dfb28b"/></g><g><path d="m58 9v11h-12v-4.76l1.11.55c.27.14.58.21.89.21.76 0 1.45-.42 1.79-1.11.49-.98.09-2.19-.9-2.68l-2.89-1.51v-1.7z" fill="#ecc19c"/></g><g><path d="m62 28v34h-56c-2.21 0-4-1.79-4-4 0-1.1.45-2.1 1.17-2.83.73-.72 1.73-1.17 2.83-1.17h4v-26h4 8 4 6 8 6 6 4 4z" fill="#f0d0b4"/></g><g><path d="m56 28h-4-6v-8h12 2v8z" fill="#ccd1d9"/></g><g><path d="m58 46v12h-11v-5h-8-7v3h-12v-8-4h-6v-9h12v-3h11 11v2h10z" fill="#fcd770"/></g><g><path d="m48.89 12.21c.99.49 1.39 1.7.9 2.68-.34.69-1.03 1.11-1.79 1.11-.31 0-.62-.07-.89-.21l-1.11-.55-10-5-10 5-1.11.55c-.27.14-.58.21-.89.21-.76 0-1.45-.42-1.79-1.11-.14-.28-.21-.59-.21-.89 0-.73.41-1.44 1.11-1.79l11-5.75c.59-.3 1.23-.46 1.89-.46s1.3.16 1.89.46l8.11 4.24z" fill="#fc6e51"/></g><g><path d="m36 10.24-10 5v4.76 8h20v-8-4.76z" fill="#e6e9ed"/></g><g><path d="m32 18h8v10h-8z" fill="#aab2bd"/></g><g><path d="m10 20h16v8h-16z" fill="#ccd1d9"/></g><g><path d="m26 15.24v4.76h-16-4l3-6h4 8 1c0 .3.07.61.21.89.34.69 1.03 1.11 1.79 1.11.31 0 .62-.07.89-.21z" fill="#ff826e"/></g><g><path d="m14 24h8v4h-8z" fill="#aab2bd"/></g><g><path d="m10 28v26h-4c-1.1 0-2.1.45-2.83 1.17-.72.73-1.17 1.73-1.17 2.83v-34c0-2.21 1.79-4 4-4h4z" fill="#ffeaa7"/></g></g><g><path d="m61 27v-8h-2v-11c0-3.86-3.141-7-7-7s-7 3.14-7 7v1.049l-6.65-3.473c-1.445-.754-3.254-.754-4.699 0l-10.992 5.74c-.249.124-.462.287-.659.465v-2.781h4.414l-8-8h-2.828l-8 8h4.414v4h-3.618l-3.033 6.066c-2.447.323-4.349 2.4-4.349 4.934v34c0 2.757 2.243 5 5 5h57v-36zm-4 0v-4h-2v4h-2v-4h-2v4h-4v-6h12v6zm-18 0h-6v-8h6zm-8-10v10h-4v-11.146l9-4.5 9 4.5v11.146h-4v-10zm-10 10h-6v-2h6zm-8-4v4h-2v-6h14v6h-2v-4zm34-4v-2.193c.322.115.657.193.999.193 1.144 0 2.172-.635 2.685-1.658.739-1.48.138-3.286-1.326-4.017l-2.358-1.231v-.094h10v9zm5-16c2.757 0 5 2.243 5 5h-10c0-2.757 2.243-5 5-5zm-28.948 10.684c.085-.254.263-.459.517-.587l11.007-5.747c.875-.458 1.973-.458 2.848 0l11.023 5.756c.238.119.416.324.501.579.084.254.065.525-.053.763-.241.479-.863.688-1.343.448l-11.552-5.778-11.553 5.776c-.479.24-1.102.031-1.342-.447-.119-.238-.137-.509-.053-.763zm-6.638-10.684h1.172l4 4h-9.172zm-2.414 6h6v4h-6zm-4.382 6h11.568c.041.115.074.231.13.342.513 1.023 1.541 1.658 2.685 1.658.342 0 .677-.078.999-.193v2.193h-14-3.382zm-6.618 9c0-1.654 1.346-3 3-3h3v32h-3c-1.125 0-2.164.373-3 1.002zm58 37h-55c-1.654 0-3-1.346-3-3s1.346-3 3-3h5v-26h2 10 38z"/><path d="m13 34v11h6v12h14v-3h13v5h13v-26h-10v-2h-24v3zm14-1h9v6h2v-6h9v9h2v-7h8v10h-6v2h6v10h-9v-5h-8v-4h-2v4h-7v3h-10v-6h6v-2h-6v-4h-6v-7h10v4h2v-5-1z"/></g></g></svg>