<svg id="Layer_5" enable-background="new 0 0 64 64" height="512" viewBox="0 0 64 64" width="512" xmlns="http://www.w3.org/2000/svg"><g><g><g><path d="m62 16v16c0 1.1-.9 2-2 2h-18v-4-4-4-4h-8v-6c0-1.1.9-2 2-2h10v6z" fill="#e6e9ed"/></g><g><path d="m60 38h-24c-1.1 0-2 .9-2 2v20c0 1.1.9 2 2 2h24c1.1 0 2-.9 2-2v-20c0-1.1-.9-2-2-2z" fill="#e6e9ed"/></g><g><path d="m42 18v16h-6c-1.1 0-2-.9-2-2v-14z" fill="#ff826e"/></g><g><path d="m50 20h8v10h-8z" fill="#ff826e"/></g><g><path d="m62 12v4h-16v-6h14c1.1 0 2 .9 2 2z" fill="#b4dd7f"/></g><g><path d="m34 44h2v4h-24v-4z" fill="#b4dd7f"/></g><g><path d="m36 52v4h-2-22v-4z" fill="#b4dd7f"/></g><g><path d="m12 48h24v4h-24z" fill="#fcd770"/></g><g><path d="m12 52v4h-4c-1.66 0-3.16-.67-4.24-1.76-1.09-1.08-1.76-2.58-1.76-4.24 0-3.31 2.69-6 6-6h4v4z" fill="#aab2bd"/></g><g><path d="m43.15 48.47c.53.33.85.91.85 1.53s-.32 1.2-.85 1.53l-3.15 1.97-4 2.5v-4-4-4l4 2.5z" fill="#aab2bd"/></g><g><path d="m48 42v16h-8v-4.5l3.15-1.97c.53-.33.85-.91.85-1.53s-.32-1.2-.85-1.53l-3.15-1.97v-4.5z" fill="#ff826e"/></g><g><path d="m52 52h6v6h-6z" fill="#ff826e"/></g><g><path d="m52 42h6v6h-6z" fill="#ff826e"/></g><g><path d="m32 12-2.32 3.25-3.68-2.62-9-6.43-9 6.43-3.68 2.62-2.32-3.25 13.19-9.42c.53-.38 1.16-.58 1.81-.58s1.28.2 1.81.58z" fill="#fcd770"/></g><g><path d="m17 6.2 9 6.43v18.37h-6v-10h-6v10h-6v-18.37z" fill="#e6e9ed"/></g><g><path d="m14 21h6v10h-6z" fill="#aab2bd"/></g><g><path d="m14 13h6v4h-6z" fill="#69d6f4"/></g></g><g><path d="m60 37h-24c-1.654 0-3 1.346-3 3v3h-25c-3.86 0-7 3.14-7 7s3.14 7 7 7h25v3c0 1.654 1.346 3 3 3h24c1.654 0 3-1.346 3-3v-20c0-1.654-1.346-3-3-3zm-19 17.054 2.682-1.676c.825-.516 1.318-1.404 1.318-2.378s-.493-1.862-1.318-2.378l-2.682-1.676v-2.946h6v14h-6zm1.622-4.736c.237.148.378.403.378.682s-.141.534-.378.682l-5.622 3.514v-8.392zm-29.622-.318h22v2h-22zm22-2h-22v-2h22zm-22 6h22v2h-22zm-10-3c0-2.757 2.243-5 5-5h3v10h-3c-2.757 0-5-2.243-5-5zm58 10c0 .551-.449 1-1 1h-24c-.551 0-1-.449-1-1v-3h1.287l2.713-1.696v3.696h10v-18h-10v3.696l-2.713-1.696h-1.287v-3c0-.551.449-1 1-1h24c.551 0 1 .449 1 1z"/><path d="m60 9h-24c-1.654 0-3 1.346-3 3v20c0 1.654 1.346 3 3 3h24c1.654 0 3-1.346 3-3v-20c0-1.654-1.346-3-3-3zm1 3v3h-14v-4h13c.551 0 1 .449 1 1zm-20 13h-6v-2h6zm0 2v2h-6v-2zm0-6h-6v-2h6zm-6 11v-1h6v2h-5c-.551 0-1-.449-1-1zm25 1h-17v-16h-8v-5c0-.551.449-1 1-1h9v6h16v15c0 .551-.449 1-1 1z"/><path d="m51 49h8v-8h-8zm2-6h4v4h-4z"/><path d="m51 59h8v-8h-8zm2-6h4v4h-4z"/><path d="m49 31h10v-12h-10zm2-10h6v8h-6z"/><path d="m15.767 3.395c.724-.517 1.742-.517 2.466 0l13.186 9.418 1.162-1.627-13.186-9.419c-1.406-1.004-3.384-1.004-4.79 0l-13.186 9.42 1.162 1.627z"/><path d="m29.094 16.069 1.162-1.628-13.256-9.469-13.256 9.469 1.162 1.628 2.094-1.496v15.427h-2v2h24v-2h-2v-15.427zm-10.094 13.931h-4v-8h4zm6 0h-4v-10h-8v10h-4v-16.856l8-5.714 8 5.714z"/><path d="m13 18h8v-6h-8zm2-4h4v2h-4z"/></g></g></svg>